<svg version="1.2" xmlns="http://www.w3.org/2000/svg" viewBox="0 0 400 400" width="400" height="400">
	<title>paper</title>
	<style>
		tspan { white-space:pre } 
		.s0 { fill: #00dfba } 
	</style>
	<path id="Layer" class="s0" d="m77.1 318.9c0-2.4 0.5-4.7 1.4-6.9 0.9-2.2 2.2-4.2 3.9-5.9 1.7-1.7 3.7-3 5.9-3.9 2.2-0.9 4.5-1.4 6.9-1.4h86.4c1 0 2-0.4 2.8-1.2 0.7-0.7 1.2-1.7 1.2-2.8 0-1-0.5-2.1-1.2-2.8-0.8-0.8-1.8-1.2-2.8-1.2h-128.9c-2.8 0-5.5-0.5-8.1-1.6-2.6-1.1-4.9-2.6-6.9-4.6-1.9-2-3.5-4.3-4.5-6.9-1.1-2.5-1.7-5.3-1.7-8.1q0-2.1 0.4-4.2 0.4-2.1 1.2-4 0.8-2 2-3.8 1.2-1.7 2.7-3.2 1.5-1.5 3.3-2.6 1.7-1.1 3.7-1.9 1.9-0.7 3.9-1.1 2.1-0.4 4.1-0.3h128.8c1 0 2-0.5 2.8-1.2 0.7-0.8 1.2-1.8 1.2-2.8 0-1.1-0.5-2.1-1.2-2.9-0.8-0.7-1.8-1.1-2.8-1.1h-127.2c-3 0-6-0.6-8.7-1.8-2.8-1.1-5.3-2.8-7.5-4.9-2.1-2.2-3.8-4.7-4.9-7.5-1.2-2.7-1.8-5.7-1.8-8.7 0-14.3 12.4-22.9 24.3-22.9h125.8c1 0 2-0.4 2.8-1.1 0.7-0.8 1.2-1.8 1.2-2.9 0-1-0.5-2-1.2-2.8-0.8-0.7-1.8-1.2-2.8-1.2h-103c-2.8 0-5.6-0.5-8.1-1.6-2.6-1-4.9-2.6-6.9-4.6-2-1.9-3.5-4.3-4.6-6.8-1.1-2.6-1.6-5.4-1.6-8.1 0-13.3 11.4-21.2 22.5-21.2h156.3v47c0 4.6 0.5 9.2 1.5 13.7 1 4.5 2.4 8.9 4.4 13.1 1.9 4.2 4.3 8.2 7 11.9 2.8 3.7 6 7.1 9.5 10.1q0.6 0.5 1.3 0.8 0.8 0.2 1.6 0.2 0.8-0.1 1.5-0.4 0.7-0.4 1.2-1 0.5-0.6 0.8-1.3 0.2-0.8 0.2-1.6-0.1-0.8-0.4-1.5-0.4-0.7-1-1.2c-3.1-2.7-5.8-5.6-8.3-8.9-2.4-3.2-4.5-6.7-6.2-10.4-1.6-3.7-2.9-7.5-3.8-11.5-0.9-3.9-1.3-8-1.3-12v-51q0-0.1 0-0.2 0 0 0-0.1 0-0.1 0-0.1 0-0.1 0-0.1v-0.3q-0.1-0.1-0.1-0.2 0-0.1-0.1-0.2 0-0.2-0.1-0.3 0-0.1-0.1-0.2l-0.1-0.2q0-0.1-0.1-0.2 0-0.1-0.1-0.2-0.1-0.1-0.1-0.2-0.1-0.1-0.2-0.2l-0.1-0.1-18.6-19.8c-3.3-3.5-6-7.7-7.7-12.2-1.8-4.5-2.7-9.4-2.6-14.2 0.1-4.9 1.1-9.7 3-14.2 1.9-4.4 4.6-8.5 8-11.9 0.9-0.9 2-1.7 3.1-2.2 1.2-0.5 2.4-0.7 3.7-0.8 1.3 0 2.5 0.2 3.7 0.7 1.2 0.4 2.3 1.1 3.2 2l81.5 75.1c33.4 30.1 47 60.7 47 105.7 0 49.1-40.5 89.2-90.2 89.2h-181.1c-9.2 0-19-6.4-19-18.1z"/>
	<text id="" style="transform: matrix(1,0,0,-1,31.538,336.96)" >
	</text>
	<text id="" style="transform: matrix(1,0,0,-1,155,94)" >
	</text>
	<text id="" style="transform: matrix(0,1,1,0,31.538,64.334)" >
	</text>
</svg>