<svg version="1.2" xmlns="http://www.w3.org/2000/svg" viewBox="0 0 400 400" width="400" height="400">
	<title>rock</title>
	<style>
		.s0 { fill: #fe2bf1 } 
	</style>
	<path id="Layer" class="s0" d="m246 260.7h53.4c7 0 13.8-2.8 18.8-7.8 4.9-5 7.8-11.7 7.8-18.8 0-7-2.9-13.8-7.8-18.8-5-5-11.8-7.8-18.8-7.8h-52v46.9q0 0.8-0.1 1.7-0.1 0.8-0.2 1.6-0.2 0.7-0.5 1.5-0.3 0.8-0.6 1.5z"/>
	<path id="Layer" class="s0" d="m247.4 137.7h54c5.9 0 11.5-2.4 15.7-6.5 4.2-4.2 6.5-9.8 6.5-15.7 0-5.9-2.3-11.6-6.5-15.7-4.2-4.2-9.8-6.5-15.7-6.5h-66.5q3 3.7 5.4 7.9 2.3 4.2 3.9 8.7 1.6 4.5 2.4 9.2 0.8 4.8 0.8 9.6z"/>
	<path id="Layer" class="s0" d="m196.9 294.4c0-2.8 0.4-5.7 1.1-8.4 0.8-2.8 1.9-5.4 3.3-7.9 1.4-2.5 3.2-4.8 5.2-6.8 2-2 4.3-3.7 6.8-5.2-4.6-1.8-8.9-4.3-12.7-7.4-3.8-3.1-7.2-6.7-9.9-10.8-2.8-4.1-4.9-8.6-6.4-13.3-1.4-4.7-2.1-9.6-2.1-14.5v-33.2c-2.5 4-5.4 7.6-8.8 10.9-3.3 3.2-7.1 6-11.1 8.3-4.1 2.3-8.4 4-12.9 5.2-4.6 1.2-9.2 1.8-13.9 1.8h-15c-1 0-2-0.4-2.8-1.2-0.7-0.7-1.2-1.7-1.2-2.8 0-1.1 0.5-2.1 1.2-2.8 0.8-0.8 1.8-1.2 2.8-1.2h15c6.2 0 12.2-1.2 17.9-3.6 5.6-2.3 10.8-5.8 15.1-10.1 4.3-4.3 7.7-9.5 10.1-15.1 2.3-5.7 3.6-11.7 3.6-17.8v-0.7q0-0.8 0.3-1.6 0.3-0.7 0.8-1.3 0.6-0.5 1.3-0.8 0.8-0.3 1.6-0.3 0.8 0 1.5 0.3 0.7 0.3 1.3 0.8 0.5 0.6 0.9 1.3 0.3 0.8 0.3 1.6v62.3c0 5.5 1 10.9 3.1 15.9 2.1 5.1 5.2 9.7 9 13.5 3.9 3.9 8.5 6.9 13.5 9 5.1 2.1 10.5 3.2 15.9 3.2h6.5q1.2 0 2.4-0.5 1.1-0.4 2-1.3 0.9-0.9 1.4-2.1 0.4-1.1 0.4-2.4v-125.7q0-5.3-1.1-10.5-1.1-5.1-3.4-9.9-2.2-4.8-5.4-9-3.2-4.2-7.2-7.6-1.2-1-2.4-1.9-0.5-0.4-1-0.7-1.3-1-2.6-1.8-0.5-0.3-0.9-0.5c-1-0.6-2-1.1-3-1.6l-0.5-0.2q-1.7-0.9-3.5-1.6-0.2-0.1-0.5-0.2-1.8-0.6-3.7-1.2c-0.1 0-0.3-0.1-0.4-0.1q-1.9-0.5-3.9-0.9l-0.5-0.1q-1.9-0.3-3.9-0.5-0.2 0-0.4 0-2.1-0.2-4.1-0.2c-3.3 0-6.6 0.2-9.8 0.4-62.8 5-112.5 57.8-112.5 121.9v14.5c0.1 13.3 2.7 26.4 7.8 38.7 5.1 12.3 12.5 23.4 21.9 32.8 9.4 9.4 20.6 16.8 32.8 21.9 12.3 5.1 25.4 7.8 38.7 7.8h33.4q-2.7-2.3-4.8-5.1-2.2-2.8-3.6-6.1-1.5-3.2-2.2-6.6-0.8-3.4-0.8-7z"/>
	<path id="Layer" class="s0" d="m299.1 199.5c7.1 0 13.9-2.8 19-7.9 5-5 7.9-11.9 7.9-19 0-7.1-2.9-14-7.9-19-5.1-5.1-11.9-7.9-19-7.9h-51.6v53.8z"/>
	<path id="Layer" class="s0" d="m287 293.4c0-3.2-0.7-6.4-1.9-9.4-1.3-3-3.1-5.7-5.4-8-2.3-2.3-5-4.2-8-5.4-3-1.2-6.2-1.9-9.5-1.9h-37.6c-6.4 0.1-12.6 2.8-17.1 7.4-4.6 4.7-7.1 10.9-7.1 17.3 0 6.5 2.5 12.7 7.1 17.4 4.5 4.6 10.7 7.2 17.1 7.4h37.6c3.3 0 6.5-0.7 9.5-1.9 3-1.3 5.7-3.1 8-5.4 2.3-2.3 4.1-5 5.4-8 1.2-3 1.9-6.2 1.9-9.5z"/>
</svg>