<svg version="1.2" xmlns="http://www.w3.org/2000/svg" viewBox="0 0 400 400" width="400" height="400">
	<title>scissors</title>
	<style>
		.s0 { fill: #0c7ceb } 
	</style>
	<path id="Layer" class="s0" d="m180.9 161v40h43.8q3.3 0 6.6 0.7 3.2 0.7 6.2 2 3 1.3 5.7 3.2 2.7 1.9 5 4.3l108.9 15.3c5.9 0.7 11.9-0.9 16.6-4.6 4.7-3.6 7.8-8.9 8.6-14.8 0.8-5.9-0.7-11.8-4.2-16.6-3.5-4.8-8.8-8-14.7-8.9l-145.5-21.3c-0.9-0.1-1.8-0.6-2.4-1.3-0.7-0.7-1-1.7-1-2.6 0-1 0.3-1.9 1-2.6 0.6-0.8 1.5-1.2 2.4-1.4l145.9-21.3c6-0.8 11.4-4 15-8.8 3.6-4.8 5.2-10.8 4.4-16.8-0.9-5.9-4.1-11.3-8.9-14.9-4.8-3.6-10.8-5.2-16.8-4.4-43.8 5.9-75 10.3-97.8 13.6-57.8 8.2-67.7 9.6-108.6 9.8 4.5 2.6 8.7 5.8 12.4 9.5 3.6 3.6 6.8 7.8 9.4 12.2 2.6 4.5 4.6 9.4 6 14.4 1.3 5 2 10.1 2 15.3z"/>
	<path id="Layer" class="s0" d="m132.1 289.1q0-4 1-7.9 0.9-3.9 2.8-7.4 2-3.5 4.7-6.5 2.7-3 6-5.2c-4.2-1.6-8.2-3.8-11.8-6.6-3.6-2.7-6.7-6-9.3-9.8-2.6-3.7-4.6-7.8-5.9-12.1-1.4-4.3-2.1-8.8-2.1-13.4v-16c-2.3 3.7-5 7-8.2 10-3.1 2.9-6.6 5.5-10.4 7.5-3.8 2.1-7.8 3.7-12 4.8-4.1 1.1-8.4 1.6-12.7 1.6h-14c-1.1 0-2.1-0.4-2.9-1.1-0.7-0.8-1.1-1.8-1.1-2.9 0-1 0.4-2.1 1.1-2.8 0.8-0.8 1.8-1.2 2.9-1.2h14c5.6 0 11.3-1.1 16.5-3.3 5.3-2.2 10.1-5.4 14.1-9.4 4-4 7.2-8.8 9.4-14.1 2.1-5.2 3.3-10.9 3.3-16.6q0-0.8 0.3-1.5 0.3-0.7 0.8-1.3 0.6-0.6 1.3-0.9 0.8-0.3 1.6-0.3 0.8 0 1.5 0.3 0.7 0.3 1.3 0.9 0.6 0.6 0.9 1.3 0.3 0.7 0.3 1.5v43.5q0 3.3 0.5 6.5 0.6 3.2 1.7 6.2 1.1 3 2.8 5.8 1.6 2.8 3.7 5.3 1.1 1.2 2.2 2.3 1.1 1.2 2.4 2.2 1.2 1 2.5 1.9 1.4 0.9 2.8 1.7 1.9 1.2 4 2 2.1 0.9 4.3 1.5 2.2 0.6 4.4 0.9 2.3 0.4 4.5 0.4 0.4 0 0.9 0 0.2 0 0.4 0 0.2 0 0.4 0 0.2-0.1 0.4-0.1 0.2 0 0.4-0.1 0.2 0 0.4 0 1.8-0.3 3.4-1.3 1.6-0.9 2.8-2.4 1.2-1.4 1.8-3.1 0.6-1.8 0.6-3.6v-86.3c0-6.7-1.3-13.4-3.9-19.6-2.6-6.2-6.4-11.9-11.1-16.7-4.8-4.7-10.5-8.5-16.7-11.1-6.2-2.6-12.9-3.9-19.6-3.9-30.6 0-58.3 11.5-77.8 32.4-4.8 5.1-9 10.7-12.7 16.7-3.6 5.9-6.6 12.3-9 18.9-2.3 6.6-4 13.4-4.9 20.3-1 6.9-1.3 13.9-0.8 20.9 3.5 53.6 50 95.6 105.8 95.6h21q-2.6-2.3-4.6-5.1-2.1-2.7-3.5-5.9-1.5-3.1-2.2-6.5-0.7-3.4-0.7-6.9z"/>
	<path id="Layer" class="s0" d="m222.5 289.1c0-3.2-0.7-6.3-1.9-9.3-1.2-3-3-5.6-5.3-7.9-2.2-2.3-4.9-4.1-7.9-5.3-2.9-1.2-6.1-1.9-9.3-1.9h-34.3q-0.3 0.1-0.7 0.1-0.3 0.1-0.6 0.1-0.3 0-0.7 0-0.3 0-0.6 0-0.3 0-0.6 0c-6.2 0.8-11.9 3.8-15.9 8.6-4 4.7-6 10.9-5.6 17.1 0.3 6.2 3.1 12 7.6 16.3 4.5 4.3 10.5 6.6 16.7 6.6h34.7c3.2 0 6.4-0.6 9.3-1.9 3-1.2 5.7-3 7.9-5.2 2.3-2.3 4.1-5 5.3-7.9 1.2-3 1.9-6.2 1.9-9.4z"/>
	<path id="Layer" class="s0" d="m246.8 224.5q-0.2-0.5-0.4-1-0.2-0.5-0.5-1c-0.1-0.3-0.3-0.7-0.5-1.1l-0.5-0.9q-0.3-0.6-0.6-1.1c-0.3-0.4-0.4-0.5-0.5-0.8-0.2-0.2-0.6-0.8-0.9-1.1q-0.2-0.4-0.5-0.7-1.7-2-3.8-3.7-2.2-1.6-4.6-2.7-2.4-1.1-5-1.7-2.6-0.6-5.3-0.6h-43.8v38.3q0 1.4-0.2 2.7-0.2 1.4-0.6 2.7-0.4 1.4-1 2.6-0.7 1.3-1.4 2.4h47c3 0 6-0.5 8.8-1.6 2.8-1.1 5.3-2.6 7.6-4.7 2.2-2 4-4.3 5.4-7 1.3-2.7 2.2-5.6 2.5-8.5q0-0.4 0-0.7 0.1-0.3 0.1-0.6 0-0.3 0-0.6 0-0.3 0-0.6 0-0.3 0-0.6 0-0.3 0-0.6 0-0.3-0.1-0.6 0-0.3 0-0.6c0-0.3-0.1-0.6-0.1-0.9-0.1-0.3-0.2-0.9-0.2-1.3-0.1-0.5-0.2-0.7-0.3-1.1q-0.1-0.6-0.3-1.1z"/>
</svg>