<svg version="1.2" xmlns="http://www.w3.org/2000/svg" viewBox="0 0 400 400" width="400" height="400">
	<title>rock</title>
	<style>
		.s0 { fill: #fe2bf1 } 
	</style>
	<path id="Layer" class="s0" d="m260.4 154.1v-53.4c0-7.1-2.8-13.8-7.8-18.8-5-5-11.8-7.8-18.8-7.8-7.1 0-13.8 2.8-18.8 7.8-5 5-7.8 11.7-7.8 18.8v51.9h46.9q0.8 0 1.6 0.1 0.8 0.1 1.6 0.3 0.8 0.2 1.6 0.5 0.7 0.2 1.5 0.6z"/>
	<path id="Layer" class="s0" d="m137.3 152.6v-53.9c0-5.9-2.3-11.6-6.5-15.7-4.1-4.2-9.8-6.5-15.7-6.5-5.9 0-11.5 2.3-15.7 6.5-4.1 4.1-6.5 9.8-6.5 15.7v66.5q3.7-3.1 7.9-5.4 4.2-2.4 8.7-4 4.6-1.6 9.3-2.4 4.7-0.8 9.5-0.8z"/>
	<path id="Layer" class="s0" d="m294.1 203.2c-2.9 0-5.7-0.4-8.5-1.2-2.7-0.7-5.4-1.8-7.8-3.2-2.5-1.5-4.8-3.2-6.8-5.2-2-2.1-3.8-4.3-5.2-6.8-1.8 4.6-4.4 8.8-7.4 12.6-3.1 3.9-6.8 7.2-10.9 10-4 2.7-8.5 4.9-13.2 6.3-4.7 1.5-9.6 2.2-14.5 2.2h-33.3c4 2.4 7.7 5.4 10.9 8.7 3.3 3.4 6.1 7.1 8.3 11.2 2.3 4.1 4.1 8.4 5.3 12.9 1.1 4.5 1.7 9.2 1.7 13.8v15c0 1.1-0.4 2.1-1.1 2.9-0.8 0.7-1.8 1.1-2.9 1.1-1 0-2-0.4-2.8-1.1-0.7-0.8-1.2-1.8-1.2-2.9v-15c0-6.1-1.2-12.2-3.5-17.8-2.4-5.7-5.8-10.8-10.1-15.1-4.4-4.4-9.5-7.8-15.1-10.1-5.7-2.4-11.8-3.6-17.9-3.6h-0.7q-0.8 0-1.5-0.3-0.8-0.3-1.3-0.9-0.6-0.5-0.9-1.3-0.3-0.7-0.3-1.5 0-0.8 0.3-1.5 0.3-0.8 0.9-1.3 0.5-0.6 1.3-0.9 0.7-0.3 1.5-0.3h62.4c5.5 0 10.9-1.1 15.9-3.2 5-2.1 9.6-5.1 13.5-9 3.8-3.8 6.9-8.4 9-13.5 2.1-5 3.2-10.4 3.2-15.9v-6.4q0-1.2-0.5-2.4-0.5-1.1-1.4-2-0.9-0.9-2-1.4-1.2-0.5-2.4-0.5h-125.8q-5.2 0-10.4 1.2-5.1 1.1-9.9 3.3-4.8 2.2-9 5.4-4.2 3.2-7.6 7.3-1 1.1-2 2.4-0.3 0.5-0.7 1-0.9 1.3-1.7 2.6-0.3 0.4-0.6 0.9c-0.5 1-1.1 1.9-1.6 2.9l-0.2 0.5q-0.8 1.8-1.5 3.6-0.1 0.2-0.2 0.4-0.7 1.8-1.2 3.7c0 0.2-0.1 0.3-0.1 0.5q-0.6 1.9-0.9 3.8l-0.1 0.5q-0.4 2-0.5 3.9 0 0.3 0 0.5-0.2 2-0.2 4.1c0 3.3 0.1 6.5 0.4 9.8 5 62.8 57.7 112.4 121.8 112.4h14.6c13.2 0 26.4-2.6 38.7-7.7 12.2-5.1 23.4-12.6 32.8-22 9.3-9.3 16.8-20.5 21.9-32.8 5.1-12.2 7.7-25.4 7.7-38.7v-33.3q-2.3 2.7-5.1 4.8-2.8 2.1-6 3.6-3.2 1.5-6.6 2.2-3.5 0.8-7 0.8z"/>
	<path id="Layer" class="s0" d="m199.2 101c0-7.1-2.8-14-7.9-19-5-5.1-11.9-7.9-19-7.9-7.2 0-14 2.8-19.1 7.9-5 5-7.8 11.9-7.9 19v51.6h53.9z"/>
	<path id="Layer" class="s0" d="m293.1 113.1c-3.2 0-6.5 0.6-9.5 1.9-3 1.2-5.7 3-8 5.3-2.3 2.3-4.1 5.1-5.3 8.1-1.3 3-1.9 6.2-1.9 9.4v37.6c0.1 6.5 2.8 12.7 7.4 17.2 4.6 4.5 10.8 7.1 17.3 7.1 6.5 0 12.7-2.6 17.3-7.1 4.6-4.5 7.3-10.7 7.4-17.2v-37.6c0-3.2-0.6-6.4-1.9-9.4-1.2-3-3-5.8-5.3-8.1-2.3-2.3-5-4.1-8-5.3-3-1.3-6.3-1.9-9.5-1.9z"/>
</svg>