<?xml version="1.0"?>
<svg width="180" height="180" xmlns="http://www.w3.org/2000/svg" xmlns:svg="http://www.w3.org/2000/svg">
 <!-- Created with SVG-edit - https://github.com/SVG-Edit/svgedit-->
 <defs>
  <symbol height="180" id="svg_2" width="180" xmlns="http://www.w3.org/2000/svg" xmlns:svg="http://www.w3.org/2000/svg">
   <title>human</title>
   <style>.s0 { fill: #000000 }</style>
   <g class="layer" display="inline" id="svg_4">
    <title>Layer 1</title>
    <path class="s0" d="m550.73,80.9c21.5,33.4 11.9,78.5 -21.5,100c-8.6,6.5 -10.7,17.2 -4.3,25.9q3.3,5.3 8.6,6.4c58.1,19.4 97.9,74.2 97.9,135.5l-283.9,0c0,-61.3 39.8,-116.1 97.9,-135.5c9.6,-3.2 13.9,-12.9 10.7,-22.6q-1.1,-5.4 -6.4,-9.7c-8.6,-5.3 -16.2,-11.8 -21.5,-20.4c-21.6,-33.3 -11.9,-78.5 21.5,-101.1c12.9,-7.5 26.8,-11.8 40.8,-11.8c22.6,0 46.3,11.8 60.2,33.3zm-95.7,-12.9c-27.9,19.4 -36.5,58.1 -17.2,86.1q6.5,10.7 17.2,18.2c5.4,3.3 9.7,8.6 11.9,15.1c5.3,15.1 -3.3,31.2 -18.3,36.6c-50.6,16.1 -86,61.3 -90.3,113.9l262.3,0c-4.3,-52.6 -39.7,-97.8 -90.3,-113.9c-6.4,-2.2 -11.8,-6.5 -15,-11.9c-8.6,-12.9 -5.4,-31.2 8.6,-39.8c29,-19.3 36.5,-57 17.2,-86c-11.9,-18.3 -31.2,-27.9 -50.6,-27.9c-11.8,0 -24.7,3.2 -35.5,9.6z" fill-rule="evenodd" id="svg_1" transform="matrix(0.446703 0 0 0.480361 -128.475 -5.23964)"/>
   </g>
  </symbol>
 </defs>
 <g class="layer">
  <title>Layer 1</title>
  <path d="m146.54,159.18l0.63,1.8l0.13,1.25c0,0 0.14,0.79 0.16,0.91" fill="none" id="svg_12" stroke="#000000" stroke-width="3" transform="rotate(9.45172 147 161.156)"/>
  <g id="svg_19" transform="translate(24.8164 165.028) scale(1 0.888684) translate(-24.8164 -165.028) translate(0.177936 0) matrix(1.11232 0 0 1 -10.1104 0)">
   <g id="svg_18">
    <g id="svg_17">
     <line fill="none" id="svg_6" stroke="#000000" stroke-width="3" x1="31.4" x2="148.63" y1="163.41" y2="163.41"/>
     <path d="m32.81,164.85l0.11,-4.22l0.53,-4.34l1.07,-7.3l2.14,-9.08l4.63,-11.44l4.27,-7.7l4.8,-6.31l4.8,-4.93c0,0 5.59,-3.87 5.59,-4.06c0,-0.2 5.34,-3.75 5.27,-3.83c-0.07,-0.08 5.59,-2.88 5.52,-2.96c-0.07,-0.08 3.81,-2.88 3.74,-2.96c-0.07,-0.08 1.32,-2.68 1.25,-2.76c-0.07,-0.08 -0.11,-2.68 -0.18,-2.76c-0.07,-0.08 -0.82,-3.08 -0.89,-3.16c-0.07,-0.08 -1.71,-2.29 -1.78,-2.37c-0.07,-0.08 -3.31,-2.88 -3.38,-2.96c-0.07,-0.08 -2.6,-3.08 -2.67,-3.16c-0.07,-0.08 -2.24,-3.47 -2.31,-3.55c-0.07,-0.08 -1.71,-3.28 -1.71,-3.47c0,-0.2 -2.49,-7.3 -0.36,-1.38m-1.07,-2.57l-0.84,-3.49l-0.84,-3.49l-0.18,-6.12l0.36,-5.52l1.42,-5.72l3.2,-7.89l3.38,-4.93l3.38,-3.75l5.87,-4.14l4.8,-1.78l5.69,-0.99l5.34,0.2l5.52,0.99l3.2,1.78l3.74,2.17l2.85,2.96l3.38,3.95l3.02,5.33l2.14,5.72l1.6,7.3l0,5.92l-0.71,6.31l-1.78,6.51l-1.6,4.14c0,0 -2.06,3.24 -2.06,3.24c0,0 -2.85,3.75 -2.92,3.67c-0.07,-0.08 -4.2,4.03 -4.27,3.95c-0.07,-0.08 -2.06,3.24 -2.14,3.16c-0.07,-0.08 -0.64,2.64 -0.71,2.57c-0.07,-0.08 0.25,2.45 0.18,2.37c-0.07,-0.08 0.78,2.45 0.71,2.37c-0.07,-0.08 1.49,2.25 1.42,2.17c-0.07,-0.08 2.56,1.26 2.56,1.26c0,0 5.16,2.96 5.09,2.88c-0.07,-0.08 5.77,3.24 5.69,3.16c-0.07,-0.08 3.81,3.24 3.74,3.16c-0.07,-0.08 4.88,4.22 4.8,4.14c-0.07,-0.08 3.27,4.22 3.2,4.14c-0.07,-0.08 3.27,3.83 3.2,3.75c-0.07,-0.08 3.81,6.39 3.74,6.31c-0.07,-0.08 2.56,5.21 2.49,5.13c-0.07,-0.08 2.21,4.81 2.14,4.74c-0.07,-0.08 1.85,5.41 1.85,5.41c0,0 1.25,5.52 1.25,5.52c0,0 1.07,5.92 1,5.84c-0.07,-0.08 0.6,5.01 0.6,5.01c0,0 0.53,2.96 0.46,2.88c0.06,-0.04 -0.31,-2.46 -0.15,1.01c0.16,3.47 -0.04,3.29 -0.02,3.75" fill="none" id="svg_7" stroke="#000000" stroke-width="3"/>
     <line fill="none" id="svg_13" stroke="#000000" stroke-width="3" x1="75.34" x2="84.61" y1="47.55" y2="46.37"/>
     <line fill="none" id="svg_14" stroke="#000000" stroke-width="3" x1="94.6" x2="103.84" y1="46.5" y2="47.88"/>
     <line fill="none" id="svg_15" stroke="#000000" stroke-width="2" x1="85.56" x2="89.6" y1="61.09" y2="65.37"/>
    </g>
    <use href="#svg_2" id="svg_3" transform="matrix(0.888889 0 0 0.982153 9.71787 3.02521)"/>
   </g>
   <line fill="none" id="svg_16" stroke="#000000" stroke-width="2" x1="93.63" x2="88.63" y1="61.33" y2="65.73"/>
  </g>
 </g>
</svg>