<svg version="1.2" xmlns="http://www.w3.org/2000/svg" viewBox="0 0 320 400" width="320" height="400">
	<title>human</title>
	<style>
		.s0 { fill: #000000 } 
	</style>
	<path id="Layer" fill-rule="evenodd" class="s0" d="m221.2 82.3c21.5 33.4 11.9 78.5-21.5 100-8.6 6.5-10.7 17.2-4.3 25.9q3.3 5.3 8.6 6.4c58.1 19.4 97.9 74.2 97.9 135.5h-283.9c0-61.3 39.8-116.1 97.9-135.5 9.6-3.2 13.9-12.9 10.7-22.6q-1.1-5.4-6.4-9.7c-8.6-5.3-16.2-11.8-21.5-20.4-21.6-33.3-11.9-78.5 21.5-101.1 12.9-7.5 26.8-11.8 40.8-11.8 22.6 0 46.3 11.8 60.2 33.3zm-95.7-12.9c-27.9 19.4-36.5 58.1-17.2 86.1q6.5 10.7 17.2 18.2c5.4 3.3 9.7 8.6 11.9 15.1 5.3 15.1-3.3 31.2-18.3 36.6-50.6 16.1-86 61.3-90.3 113.9h262.3c-4.3-52.6-39.7-97.8-90.3-113.9-6.4-2.2-11.8-6.5-15-11.9-8.6-12.9-5.4-31.2 8.6-39.8 29-19.3 36.5-57 17.2-86-11.9-18.3-31.2-27.9-50.6-27.9-11.8 0-24.7 3.2-35.5 9.6z"/>
</svg>