<?xml version="1.0"?>
<svg width="180" height="180" xmlns="http://www.w3.org/2000/svg" xmlns:svg="http://www.w3.org/2000/svg">
 <!-- Created with SVG-edit - https://github.com/SVG-Edit/svgedit-->
 <defs>
  <symbol height="400" id="svg_9" viewBox="0 0 320 400" width="320" xmlns="http://www.w3.org/2000/svg">
   <title>robot</title>
   <style>.s0 { fill: #000000 }</style>
   <path class="s0" d="m123.7,140c-6.6,0 -11.9,-5.3 -11.9,-11.9c0,-6.5 5.3,-11.9 11.9,-11.9c6.5,0 11.8,5.4 11.8,11.9c0,6.6 -5.3,11.9 -11.8,11.9z" id="svg_8"/>
   <path class="s0" d="m202.9,140c-6.6,0 -11.9,-5.3 -11.9,-11.9c0,-6.5 5.3,-11.9 11.9,-11.9c6.6,0 11.9,5.4 11.9,11.9c0,6.6 -5.3,11.9 -11.9,11.9z" id="Layer"/>
   <path class="s0" d="m288.7,170.7c-4.4,10.7 -10.7,20.4 -18.9,28.1c-7.8,8.3 -17.5,14.6 -28.1,18.9c-10.7,4.4 -21.9,6.8 -33.5,6.8l0,48.5l9.7,0c8.2,0 16.5,1.4 24.2,4.8c7.8,2.9 14.6,7.8 20.4,13.6c5.8,5.8 10.7,12.6 13.6,20.4c3.4,7.7 4.8,16 4.8,24.2l0,14.5l-29.1,0l0,-14.5q0,-6.8 -2.4,-13.1q-2.9,-6.3 -7.7,-10.6q-4.4,-4.9 -10.7,-7.8q-6.3,-2.4 -13.1,-2.4l-116.3,0q-6.8,0 -13.1,2.4q-6.3,2.9 -10.7,7.8q-4.8,4.3 -7.7,10.6q-2.5,6.3 -2.5,13.1l0,14.5l-29.1,0l0,-14.5c0,-8.2 1.5,-16.5 4.9,-24.2c2.9,-7.8 7.7,-14.6 13.6,-20.4c5.8,-5.8 12.6,-10.7 20.3,-13.6c7.8,-3.4 16,-4.8 24.3,-4.8l14.5,0l0,-48.5l-4.8,0c-23.3,0 -45.6,-9.2 -61.6,-25.7c-16.5,-16 -25.7,-38.3 -25.7,-61.5c0,-23.3 9.2,-45.6 25.7,-61.6c16,-16.5 38.3,-25.7 61.6,-25.7l96.9,0c11.6,0 22.8,2.4 33.5,6.8c10.6,4.3 20.3,10.7 28.1,18.9c8.2,7.7 14.5,17.4 18.9,28.1c4.3,10.7 6.8,21.8 6.8,33.5c0,11.6 -2.5,22.7 -6.8,33.4zm-80.5,24.7c15.5,0 30.1,-6.3 41.2,-16.9c10.7,-11.2 17,-25.7 17,-41.2c0,-15.6 -6.3,-30.1 -17,-41.2c-11.1,-10.7 -25.7,-17 -41.2,-17l-96.9,0c-15.6,0 -30.1,6.3 -41.2,17c-10.7,11.1 -17,25.6 -17,41.2c0,15.5 6.3,30 17,41.2c11.1,10.6 25.6,16.9 41.2,16.9l96.9,0zm-63.1,77.6l34,0l0,-48.5l-34,0l0,48.5z" fill-rule="evenodd" id="svg_1"/>
  </symbol>
 </defs>
 <g class="layer">
  <title>Layer 1</title>
  <g id="svg_2" transform="translate(-0.234742 0) translate(5.16432 3.75587) translate(-15.0235 -13.615) matrix(1.00202 0 0 1.00173 0.150243 -3.34565)">
   <use href="#svg_9" id="svg_10" transform="matrix(0.4 0 0 0.4 35.75 29)"/>
   <line fill="none" id="svg_11" stroke="#000000" stroke-width="11" x1="51.13" x2="148.1" y1="170" y2="170"/>
   <ellipse cx="46.05" cy="82.89" fill="none" id="svg_13" rx="4.21" ry="5.79" stroke="#000000" stroke-width="11"/>
   <ellipse cx="153.56" cy="84.34" fill="none" id="svg_14" rx="4.21" ry="5.79" stroke="#000000" stroke-width="11"/>
   <line fill="none" id="svg_15" stroke="#000000" stroke-width="2" transform="rotate(2.489560127258301 99.4749984741211,45.78999900817871)" x1="99.74" x2="99.21" y1="51.32" y2="40.26"/>
   <ellipse cx="99.4" cy="37.11" fill="none" id="svg_16" rx="3.68" ry="3.16" stroke="#000000" stroke-width="7"/>
  </g>
 </g>
</svg>