<svg version="1.2" xmlns="http://www.w3.org/2000/svg" viewBox="0 0 400 400" width="400" height="400"><style>tspan{white-space:pre}.a{fill:#0c7ceb}.b{opacity:.88;fill:#fffffe;stroke:#fff;stroke-miterlimit:100;stroke-width:1}.c{font-size: 88px;fill: #0c7ceb;font-weight: 400;font-family: "Monaco", "Monaco"}</style><path class="a" d="m218.5 161v40h-43.8q-3.3 0-6.5 0.7-3.2 0.7-6.3 2-3 1.3-5.7 3.2-2.7 1.9-5 4.3l-108.9 15.3c-5.9 0.7-11.8-0.9-16.5-4.6-4.7-3.6-7.8-8.9-8.7-14.8-0.8-5.9 0.7-11.8 4.3-16.6 3.5-4.8 8.7-8 14.6-8.9l145.5-21.3c1-0.1 1.9-0.6 2.5-1.3 0.6-0.7 1-1.7 1-2.6 0-1-0.4-1.9-1-2.6-0.6-0.8-1.5-1.2-2.5-1.4l-145.9-21.3c-6-0.8-11.3-4-15-8.8-3.6-4.8-5.2-10.8-4.3-16.8 0.8-5.9 4-11.3 8.8-14.9 4.8-3.6 10.8-5.2 16.8-4.4 43.8 5.9 75 10.3 97.9 13.6 57.8 8.2 67.6 9.6 108.5 9.8-4.5 2.6-8.6 5.8-12.3 9.5-3.7 3.6-6.9 7.8-9.5 12.2-2.6 4.5-4.6 9.4-5.9 14.4q-2.1 7.5-2.1 15.3z"/><path class="a" d="m267.4 289.1q0-4-1-7.9-1-3.9-2.9-7.4-1.9-3.5-4.6-6.5-2.7-3-6.1-5.2c4.3-1.6 8.2-3.8 11.8-6.6 3.6-2.7 6.7-6 9.3-9.8 2.6-3.7 4.6-7.8 6-12.1 1.3-4.3 2-8.8 2-13.4v-16c2.3 3.7 5.1 7 8.2 10 3.2 2.9 6.7 5.5 10.4 7.5q5.7 3.2 12 4.8c4.2 1.1 8.5 1.6 12.8 1.6h14c1 0 2.1-0.4 2.8-1.1 0.8-0.8 1.2-1.8 1.2-2.9 0-1-0.4-2.1-1.2-2.8-0.7-0.8-1.8-1.2-2.8-1.2h-14c-5.7 0-11.3-1.1-16.6-3.3-5.3-2.2-10-5.4-14-9.4-4.1-4-7.3-8.8-9.4-14.1-2.2-5.2-3.3-10.9-3.3-16.6q0-0.8-0.3-1.5-0.3-0.7-0.9-1.3-0.6-0.6-1.3-0.9-0.7-0.3-1.5-0.3-0.8 0-1.6 0.3-0.7 0.3-1.3 0.9-0.5 0.6-0.8 1.3-0.3 0.7-0.3 1.5v43.5q0 3.3-0.6 6.5-0.6 3.2-1.7 6.2-1.1 3-2.7 5.8-1.7 2.8-3.8 5.3-1 1.2-2.2 2.3-1.1 1.2-2.3 2.2-1.3 1-2.6 1.9-1.3 0.9-2.7 1.7-2 1.2-4.1 2-2.1 0.9-4.3 1.5-2.2 0.6-4.4 0.9-2.2 0.4-4.5 0.4-0.4 0-0.8 0-0.2 0-0.4 0-0.3 0-0.5 0-0.2-0.1-0.4-0.1-0.2 0-0.4-0.1-0.2 0-0.4 0-1.8-0.3-3.4-1.3-1.6-0.9-2.8-2.4-1.1-1.4-1.8-3.1-0.6-1.8-0.6-3.6v-86.3c0-6.7 1.3-13.4 3.9-19.6 2.6-6.2 6.4-11.9 11.2-16.7 4.7-4.7 10.4-8.5 16.6-11.1 6.2-2.6 12.9-3.9 19.7-3.9 30.6 0 58.2 11.5 77.8 32.4 4.7 5.1 9 10.7 12.6 16.7 3.6 5.9 6.7 12.3 9 18.9 2.3 6.6 4 13.4 5 20.3 0.9 6.9 1.2 13.9 0.8 20.9-3.5 53.6-50 95.6-105.9 95.6h-21q2.6-2.3 4.7-5.1 2-2.7 3.5-5.9 1.4-3.1 2.1-6.5 0.8-3.4 0.8-6.9z"/><path class="a" d="m177 289.1q0-4.8 1.8-9.3c1.3-3 3.1-5.6 5.3-7.9 2.3-2.3 5-4.1 7.9-5.3 3-1.2 6.1-1.9 9.3-1.9h34.4q0.3 0.1 0.6 0.1 0.3 0.1 0.6 0.1 0.4 0 0.7 0 0.3 0 0.6 0 0.3 0 0.6 0c6.2 0.8 11.9 3.8 15.9 8.6 4 4.7 6 10.9 5.7 17.1-0.4 6.2-3.1 12-7.7 16.3-4.5 4.3-10.5 6.6-16.7 6.6h-34.7c-3.2 0-6.3-0.6-9.3-1.9-2.9-1.2-5.6-3-7.9-5.2-2.3-2.3-4.1-5-5.3-7.9-1.2-3-1.8-6.2-1.8-9.4z"/><path class="a" d="m152.7 224.5q0.1-0.5 0.4-1 0.2-0.5 0.4-1c0.2-0.3 0.3-0.7 0.5-1.1l0.5-0.9q0.3-0.6 0.7-1.1c0.2-0.4 0.3-0.5 0.5-0.8 0.2-0.2 0.5-0.8 0.8-1.1q0.3-0.4 0.5-0.7 1.8-2 3.9-3.7 2.1-1.6 4.5-2.7 2.4-1.1 5-1.7 2.6-0.6 5.3-0.6h43.8v38.3q0 1.4 0.2 2.7 0.3 1.4 0.7 2.7 0.4 1.4 1 2.6 0.6 1.3 1.4 2.4h-47.1c-3 0-5.9-0.5-8.7-1.6-2.8-1.1-5.4-2.6-7.6-4.7-2.2-2-4.1-4.3-5.4-7-1.4-2.7-2.2-5.6-2.5-8.5q-0.1-0.4-0.1-0.7 0-0.3 0-0.6-0.1-0.3-0.1-0.6 0-0.3 0-0.6 0-0.3 0-0.6 0-0.3 0.1-0.6 0-0.3 0-0.6 0-0.3 0.1-0.6c0-0.3 0-0.6 0.1-0.9 0-0.3 0.1-0.9 0.2-1.3 0.1-0.5 0.1-0.7 0.2-1.1q0.1-0.6 0.3-1.1z"/><path fill-rule="evenodd" class="b" d="m312 143v99h-225v-99z"/><text style="transform:matrix(1,0,0,1,89,157)" ><tspan x="33.3" y="69.4" class="c">W</tspan><tspan  y="69.4" class="c">I</tspan><tspan  y="69.4" class="c">N
</tspan></text></svg>