<svg version="1.2" xmlns="http://www.w3.org/2000/svg" viewBox="0 0 400 400" width="400" height="400"><style>tspan{white-space:pre}.a{fill:#fe2bf1}.b{opacity:.88;fill:#fff;stroke:#fff;stroke-miterlimit:100;stroke-width:1}.c{font-size: 88px;fill: #fe2bf1;font-weight: 400;font-family: "Monaco", "Monaco"}</style><path class="a" d="m154.1 260.7h-53.4c-7.1 0-13.8-2.9-18.8-7.8-5-5-7.8-11.8-7.8-18.8 0-7.1 2.8-13.9 7.8-18.8 5-5 11.7-7.8 18.8-7.8h51.9v46.9q0 0.8 0.1 1.6 0.1 0.8 0.3 1.6 0.2 0.8 0.5 1.6 0.2 0.7 0.6 1.5z"/><path class="a" d="m152.6 137.6h-53.9c-5.9 0-11.6-2.3-15.7-6.5-4.2-4.1-6.5-9.8-6.5-15.7 0-5.9 2.3-11.5 6.5-15.7 4.1-4.2 9.8-6.5 15.7-6.5h66.5q-3.1 3.7-5.4 7.9-2.4 4.2-4 8.7-1.6 4.5-2.4 9.3-0.8 4.7-0.8 9.5z"/><path class="a" d="m203.2 294.4c0-2.9-0.4-5.7-1.2-8.5-0.7-2.7-1.8-5.4-3.2-7.9-1.5-2.4-3.2-4.7-5.2-6.7-2.1-2.1-4.3-3.8-6.8-5.2q6.9-2.8 12.6-7.5c3.9-3.1 7.2-6.7 10-10.8 2.7-4 4.9-8.5 6.3-13.2 1.5-4.7 2.2-9.6 2.2-14.5v-33.3c2.4 4 5.4 7.7 8.7 10.9 3.4 3.2 7.1 6 11.2 8.3 4.1 2.3 8.4 4.1 12.9 5.2 4.5 1.2 9.2 1.8 13.8 1.8h15c1.1 0 2.1-0.4 2.9-1.1 0.7-0.8 1.1-1.8 1.1-2.9 0-1-0.4-2-1.1-2.8-0.8-0.7-1.8-1.2-2.9-1.2h-15c-6.1 0-12.2-1.2-17.8-3.5-5.7-2.4-10.8-5.8-15.1-10.1-4.4-4.4-7.8-9.5-10.1-15.2-2.4-5.6-3.6-11.7-3.6-17.8v-0.7q0-0.8-0.3-1.5-0.3-0.8-0.9-1.3-0.5-0.6-1.3-0.9-0.7-0.3-1.5-0.3-0.8 0-1.5 0.3-0.8 0.3-1.3 0.9-0.6 0.5-0.9 1.3-0.3 0.7-0.3 1.5v62.4c0 5.4-1.1 10.8-3.2 15.9-2.1 5-5.1 9.6-9 13.5-3.8 3.8-8.4 6.9-13.5 9-5 2.1-10.4 3.1-15.9 3.2h-6.4q-1.2-0.1-2.4-0.5-1.1-0.5-2-1.4-0.9-0.9-1.4-2-0.5-1.2-0.5-2.4v-125.8q0-5.3 1.2-10.4 1.1-5.2 3.3-9.9 2.2-4.8 5.4-9 3.2-4.2 7.3-7.6 1.1-1 2.4-2 0.5-0.4 1-0.7 1.3-0.9 2.6-1.8 0.4-0.2 0.9-0.5c1-0.5 1.9-1.1 2.9-1.6l0.5-0.2q1.8-0.8 3.6-1.5 0.2-0.1 0.4-0.2 1.8-0.7 3.7-1.2c0.2 0 0.3-0.1 0.5-0.2q1.9-0.5 3.8-0.8l0.5-0.1q2-0.4 3.9-0.6 0.3 0 0.5 0 2-0.1 4.1-0.1c3.3 0 6.5 0.1 9.8 0.4 62.8 5 112.4 57.7 112.4 121.8v14.5c0 13.3-2.6 26.5-7.7 38.7-5.1 12.3-12.6 23.4-22 32.8-9.3 9.4-20.5 16.9-32.8 22-12.2 5.1-25.4 7.7-38.7 7.7h-33.3q2.7-2.3 4.8-5.1 2.1-2.8 3.6-6 1.5-3.2 2.2-6.7 0.8-3.4 0.8-6.9z"/><path class="a" d="m101 199.5c-7.1 0-14-2.9-19-7.9-5.1-5.1-7.9-11.9-7.9-19 0-7.2 2.8-14 7.9-19.1 5-5 11.9-7.9 19-7.9h51.6v53.9z"/><path class="a" d="m113.1 293.4c0-3.3 0.6-6.5 1.9-9.5 1.2-3 3-5.7 5.3-8 2.3-2.3 5.1-4.1 8.1-5.4 3-1.2 6.2-1.8 9.4-1.8h37.6c6.5 0.1 12.7 2.7 17.2 7.4 4.5 4.6 7.1 10.8 7.1 17.3 0 6.5-2.6 12.7-7.1 17.3-4.5 4.6-10.7 7.3-17.2 7.4h-37.6c-3.2 0-6.4-0.6-9.4-1.9-3-1.2-5.8-3-8.1-5.3-2.3-2.3-4.1-5.1-5.3-8.1-1.3-3-1.9-6.2-1.9-9.4z"/><path fill-rule="evenodd" class="b" d="m325 145v110h-250v-110z"/><text style="transform:matrix(1,0,0,1,93,164)" ><tspan x="0" y="69.4" class="c">L</tspan><tspan  y="69.4" class="c">O</tspan><tspan  y="69.4" class="c">S</tspan><tspan  y="69.4" class="c">E
</tspan></text></svg>