<svg version="1.2" xmlns="http://www.w3.org/2000/svg" viewBox="0 0 400 400" width="400" height="400">
	<title>paper</title>
	<style>
		.s0 { fill: #00dfba } 
	</style>
	<path id="Layer" class="s0" d="m318.9 77.1c-2.4 0-4.7 0.5-6.9 1.4-2.2 0.9-4.2 2.2-5.9 3.9-1.7 1.7-3 3.7-3.9 5.9-0.9 2.2-1.4 4.5-1.4 6.9v86.4c0 1-0.4 2-1.2 2.8-0.7 0.7-1.7 1.2-2.8 1.2-1 0-2.1-0.5-2.8-1.2-0.8-0.8-1.2-1.8-1.2-2.8v-128.9c0-2.8-0.5-5.5-1.6-8.1-1.1-2.6-2.6-4.9-4.6-6.9-2-1.9-4.3-3.5-6.9-4.5-2.5-1.1-5.3-1.7-8.1-1.7q-2.1 0-4.2 0.4-2.1 0.4-4 1.2-2 0.8-3.8 2-1.7 1.2-3.2 2.7-1.5 1.5-2.6 3.3-1.1 1.7-1.9 3.7-0.7 1.9-1.1 3.9-0.4 2.1-0.3 4.1v128.8c0 1-0.5 2-1.2 2.8-0.8 0.7-1.8 1.2-2.8 1.2-1.1 0-2.1-0.5-2.9-1.2-0.7-0.8-1.1-1.8-1.1-2.8v-127.2c0-3-0.6-6-1.8-8.7-1.1-2.8-2.8-5.3-4.9-7.5-2.2-2.1-4.7-3.8-7.5-4.9-2.7-1.2-5.7-1.8-8.7-1.8-14.3 0-22.9 12.4-22.9 24.3v125.8c0 1-0.4 2-1.1 2.8-0.8 0.7-1.8 1.2-2.9 1.2-1 0-2-0.5-2.8-1.2-0.7-0.8-1.2-1.8-1.2-2.8v-103c0-2.8-0.5-5.6-1.6-8.1-1-2.6-2.6-4.9-4.6-6.9-1.9-2-4.3-3.5-6.8-4.6-2.6-1.1-5.4-1.6-8.1-1.6-13.3 0-21.2 11.4-21.2 22.5v156.3h47c4.6 0 9.2 0.5 13.7 1.5 4.5 1 8.9 2.4 13.1 4.4 4.2 1.9 8.2 4.3 11.9 7 3.7 2.8 7.1 6 10.1 9.5q0.5 0.6 0.8 1.3 0.2 0.8 0.2 1.6-0.1 0.8-0.4 1.5-0.4 0.7-1 1.2-0.6 0.5-1.3 0.8-0.8 0.2-1.6 0.2-0.8-0.1-1.5-0.4-0.7-0.4-1.2-1c-2.7-3.1-5.6-5.8-8.9-8.3-3.2-2.4-6.7-4.5-10.4-6.2-3.7-1.6-7.5-2.9-11.5-3.8-3.9-0.9-8-1.3-12-1.3h-51q-0.1 0-0.2 0 0 0-0.1 0-0.1 0-0.1 0-0.1 0-0.1 0h-0.3q-0.1-0.1-0.2-0.1-0.1 0-0.2-0.1-0.2 0-0.3-0.1-0.1 0-0.2-0.1l-0.2-0.1q-0.1 0-0.2-0.1-0.1 0-0.2-0.1-0.1-0.1-0.2-0.1-0.1-0.1-0.2-0.2l-0.1-0.1-19.8-18.6c-3.5-3.3-7.7-6-12.2-7.7-4.5-1.8-9.4-2.7-14.2-2.6-4.9 0.1-9.7 1.1-14.2 3-4.4 1.9-8.5 4.6-11.9 8-0.9 0.9-1.7 2-2.2 3.1-0.5 1.2-0.7 2.4-0.8 3.7 0 1.3 0.2 2.5 0.7 3.7 0.4 1.2 1.1 2.3 2 3.2l75.1 81.5c30.1 33.4 60.7 47 105.7 47 49.1 0 89.2-40.5 89.2-90.2v-181.1c0-9.2-6.4-19-18.1-19z"/>
</svg>