<svg version="1.2" xmlns="http://www.w3.org/2000/svg" viewBox="0 0 400 400" width="400" height="400">
	<title>scissors</title>
	<style>
		.s0 { fill: #0c7ceb } 
	</style>
	<path id="Layer" class="s0" d="m161 218.6h40v-43.9q0-3.3 0.7-6.5 0.6-3.2 1.9-6.2 1.4-3.1 3.2-5.8 1.9-2.7 4.3-4.9l15.4-108.9c0.7-5.9-1-11.9-4.6-16.6-3.6-4.7-8.9-7.8-14.8-8.6-5.9-0.9-11.9 0.7-16.7 4.2-4.7 3.5-7.9 8.8-8.9 14.6l-21.2 145.6c-0.1 0.9-0.6 1.8-1.3 2.4-0.8 0.6-1.7 1-2.7 1-0.9 0-1.9-0.4-2.6-1-0.7-0.6-1.2-1.5-1.3-2.4l-21.3-146c-0.8-5.9-4-11.3-8.8-14.9-4.8-3.7-10.8-5.2-16.8-4.4-6 0.9-11.3 4-15 8.8-3.6 4.8-5.2 10.9-4.3 16.8 5.8 43.8 10.3 75.1 13.5 97.9 8.3 57.8 9.6 67.6 9.9 108.5 2.6-4.5 5.8-8.6 9.4-12.3 3.7-3.7 7.8-6.8 12.3-9.4 4.5-2.6 9.3-4.6 14.3-6 5-1.3 10.2-2 15.4-2z"/>
	<path id="Layer" class="s0" d="m289.1 267.4q-4 0-7.9-1-3.9-1-7.4-2.9-3.6-1.9-6.5-4.6-3-2.7-5.2-6c-1.6 4.2-3.8 8.2-6.6 11.8-2.8 3.5-6.1 6.7-9.8 9.3-3.7 2.5-7.8 4.5-12.1 5.9-4.4 1.4-8.9 2-13.4 2.1h-16c3.6 2.3 7 5 9.9 8.2 3 3.1 5.5 6.6 7.6 10.4 2.1 3.7 3.7 7.8 4.8 11.9 1 4.2 1.6 8.5 1.6 12.8v14c0 1.1-0.4 2.1-1.2 2.8-0.7 0.8-1.7 1.2-2.8 1.2-1.1 0-2.1-0.4-2.8-1.2-0.8-0.7-1.2-1.7-1.2-2.8v-14c0-5.7-1.2-11.3-3.3-16.6-2.2-5.2-5.4-10-9.5-14-4-4-8.8-7.2-14-9.4-5.3-2.2-10.9-3.3-16.6-3.3q-0.8 0-1.5-0.3-0.8-0.3-1.3-0.9-0.6-0.5-0.9-1.3-0.3-0.7-0.3-1.5 0-0.8 0.3-1.5 0.3-0.8 0.9-1.3 0.5-0.6 1.3-0.9 0.7-0.3 1.5-0.3h43.5q3.2 0 6.4-0.6 3.2-0.5 6.3-1.7 3-1.1 5.8-2.7 2.8-1.6 5.2-3.7 1.3-1.1 2.4-2.2 1.1-1.2 2.1-2.4 1.1-1.2 2-2.6 0.9-1.3 1.7-2.7 1.1-2 2-4.1 0.9-2 1.5-4.2 0.6-2.2 0.9-4.5 0.3-2.2 0.4-4.5 0-0.4 0-0.8 0-0.2 0-0.4-0.1-0.2-0.1-0.4 0-0.2 0-0.4-0.1-0.2-0.1-0.4 0-0.2 0-0.4-0.4-1.9-1.3-3.5-1-1.5-2.4-2.7-1.4-1.2-3.2-1.8-1.7-0.7-3.6-0.7h-86.2c-6.7 0-13.4 1.4-19.6 4-6.3 2.5-11.9 6.3-16.7 11.1-4.8 4.8-8.5 10.4-11.1 16.7-2.6 6.2-4 12.9-4 19.6 0 30.6 11.6 58.2 32.4 77.8 5.2 4.8 10.8 9 16.7 12.6 6 3.7 12.3 6.7 18.9 9 6.6 2.4 13.4 4.1 20.4 5 6.9 1 13.9 1.2 20.9 0.8 53.6-3.5 95.6-50 95.6-105.9v-21q-2.3 2.7-5.1 4.7-2.8 2.1-5.9 3.5-3.2 1.4-6.6 2.2-3.3 0.7-6.8 0.7z"/>
	<path id="Layer" class="s0" d="m289.1 177c-3.2 0-6.4 0.6-9.3 1.9-3 1.2-5.7 3-7.9 5.2-2.3 2.3-4.1 5-5.3 8-1.3 2.9-1.9 6.1-1.9 9.3v34.3q0.1 0.3 0.1 0.6 0 0.4 0.1 0.7 0 0.3 0 0.6 0 0.3 0 0.7 0 0.3 0 0.6c0.7 6.2 3.8 11.8 8.5 15.8 4.8 4 10.9 6.1 17.1 5.7 6.3-0.4 12.1-3.1 16.4-7.6 4.2-4.6 6.6-10.5 6.6-16.8v-34.6c0-3.2-0.7-6.4-1.9-9.4-1.2-2.9-3-5.6-5.3-7.9-2.2-2.2-4.9-4-7.9-5.2-2.9-1.3-6.1-1.9-9.3-1.9z"/>
	<path id="Layer" class="s0" d="m224.5 152.7q-0.6 0.2-1 0.4-0.6 0.2-1 0.4c-0.3 0.2-0.8 0.4-1.1 0.5l-0.9 0.5q-0.6 0.3-1.1 0.7c-0.4 0.3-0.6 0.3-0.8 0.5-0.3 0.2-0.8 0.6-1.2 0.9q-0.3 0.2-0.6 0.5-2.1 1.7-3.7 3.8-1.6 2.1-2.8 4.5-1.1 2.5-1.7 5.1-0.5 2.6-0.5 5.2v43.9h38.2q1.4 0 2.8 0.2 1.4 0.2 2.7 0.6 1.3 0.4 2.6 1 1.2 0.6 2.4 1.4v-47.1c0-2.9-0.6-5.9-1.6-8.7-1.1-2.8-2.7-5.4-4.7-7.6-2-2.2-4.4-4-7-5.4-2.7-1.3-5.6-2.2-8.6-2.5q-0.3 0-0.6-0.1-0.3 0-0.6 0-0.3 0-0.6 0-0.4 0-0.7 0-0.3 0-0.6 0-0.2 0-0.5 0-0.3 0-0.6 0-0.3 0.1-0.6 0.1c-0.3 0-0.6 0.1-0.9 0.1-0.3 0.1-0.9 0.1-1.4 0.2-0.4 0.1-0.7 0.2-1 0.3q-0.6 0.1-1.1 0.3z"/>
</svg>